<mxfile host="app.diagrams.net" agent="Mozilla/5.0 (Windows NT 10.0; Win64; x64) AppleWebKit/537.36 (KHTML, like Gecko) Chrome/127.0.0.0 Safari/537.36 AtContent/95.5.5391.49" version="24.7.7" pages="5">
  <diagram name="Auth" id="edf60f1a-56cd-e834-aa8a-f176f3a09ee4">
    <mxGraphModel dx="3433" dy="1160" grid="1" gridSize="10" guides="1" tooltips="1" connect="1" arrows="1" fold="1" page="1" pageScale="1" pageWidth="1100" pageHeight="850" background="none" math="0" shadow="0">
      <root>
        <mxCell id="0" />
        <mxCell id="1" parent="0" />
        <mxCell id="KLkaMGFnh6U5lrwXZxZ8-9" style="edgeStyle=orthogonalEdgeStyle;rounded=0;orthogonalLoop=1;jettySize=auto;html=1;exitX=1;exitY=0.5;exitDx=0;exitDy=0;exitPerimeter=0;entryX=0;entryY=0.5;entryDx=0;entryDy=0;" parent="1" source="ATMucfQL7mX6FEVvn_mT-1" target="KLkaMGFnh6U5lrwXZxZ8-7" edge="1">
          <mxGeometry relative="1" as="geometry" />
        </mxCell>
        <mxCell id="ATMucfQL7mX6FEVvn_mT-1" value="Login flow" style="strokeWidth=2;html=1;shape=mxgraph.flowchart.terminator;whiteSpace=wrap;rounded=0;labelBackgroundColor=none;shadow=1;" parent="1" vertex="1">
          <mxGeometry x="470" y="70" width="100" height="60" as="geometry" />
        </mxCell>
        <mxCell id="KLkaMGFnh6U5lrwXZxZ8-11" style="edgeStyle=orthogonalEdgeStyle;rounded=0;orthogonalLoop=1;jettySize=auto;html=1;exitX=1;exitY=0.5;exitDx=0;exitDy=0;" parent="1" source="ATMucfQL7mX6FEVvn_mT-4" target="ATMucfQL7mX6FEVvn_mT-5" edge="1">
          <mxGeometry relative="1" as="geometry" />
        </mxCell>
        <mxCell id="ATMucfQL7mX6FEVvn_mT-4" value="User enters credentials" style="shape=parallelogram;html=1;strokeWidth=2;perimeter=parallelogramPerimeter;whiteSpace=wrap;rounded=0;arcSize=12;size=0.23;labelBackgroundColor=none;shadow=1;" parent="1" vertex="1">
          <mxGeometry x="800" y="70" width="100" height="60" as="geometry" />
        </mxCell>
        <mxCell id="ATMucfQL7mX6FEVvn_mT-5" value="Validate&amp;nbsp;&lt;div&gt;Credentails&lt;/div&gt;" style="strokeWidth=2;html=1;shape=mxgraph.flowchart.decision;whiteSpace=wrap;rounded=0;labelBackgroundColor=none;shadow=1;" parent="1" vertex="1">
          <mxGeometry x="940" y="50" width="100" height="100" as="geometry" />
        </mxCell>
        <mxCell id="ATMucfQL7mX6FEVvn_mT-8" value="Successful login" style="strokeWidth=2;html=1;shape=mxgraph.flowchart.terminator;whiteSpace=wrap;rounded=0;labelBackgroundColor=none;shadow=1;" parent="1" vertex="1">
          <mxGeometry x="940" y="220" width="100" height="60" as="geometry" />
        </mxCell>
        <mxCell id="ATMucfQL7mX6FEVvn_mT-13" style="edgeStyle=orthogonalEdgeStyle;rounded=0;orthogonalLoop=1;jettySize=auto;html=1;exitX=0.5;exitY=1;exitDx=0;exitDy=0;exitPerimeter=0;entryX=0.5;entryY=0;entryDx=0;entryDy=0;entryPerimeter=0;labelBackgroundColor=none;fontColor=default;shadow=1;" parent="1" source="ATMucfQL7mX6FEVvn_mT-5" target="ATMucfQL7mX6FEVvn_mT-8" edge="1">
          <mxGeometry relative="1" as="geometry" />
        </mxCell>
        <mxCell id="KLkaMGFnh6U5lrwXZxZ8-3" style="edgeStyle=orthogonalEdgeStyle;rounded=0;orthogonalLoop=1;jettySize=auto;html=1;exitX=1;exitY=0.5;exitDx=0;exitDy=0;exitPerimeter=0;entryX=0;entryY=0.5;entryDx=0;entryDy=0;" parent="1" source="ATMucfQL7mX6FEVvn_mT-14" target="KLkaMGFnh6U5lrwXZxZ8-15" edge="1">
          <mxGeometry relative="1" as="geometry">
            <mxPoint x="620" y="410" as="targetPoint" />
          </mxGeometry>
        </mxCell>
        <mxCell id="ATMucfQL7mX6FEVvn_mT-14" value="User selects the logout option" style="strokeWidth=2;html=1;shape=mxgraph.flowchart.terminator;whiteSpace=wrap;rounded=0;labelBackgroundColor=none;shadow=1;" parent="1" vertex="1">
          <mxGeometry x="470" y="370" width="100" height="60" as="geometry" />
        </mxCell>
        <mxCell id="ATMucfQL7mX6FEVvn_mT-16" value="User is logged out" style="strokeWidth=2;html=1;shape=mxgraph.flowchart.terminator;whiteSpace=wrap;rounded=0;labelBackgroundColor=none;fillStyle=auto;shadow=1;" parent="1" vertex="1">
          <mxGeometry x="820" y="370" width="100" height="60" as="geometry" />
        </mxCell>
        <mxCell id="KLkaMGFnh6U5lrwXZxZ8-1" value="1. User Authentication&#xa;   - Sign up&#xa;   - Log in&#xa;   - Log out&#xa;   - Password reset&#xa;&#xa;&#xa;2. Dashboard Access&#xa;   - View dashboard&#xa;   - Navigate to different sections (e.g., Products, Sales, Reports)&#xa;&#xa;&#xa;3. Product Management&#xa;   - Add product&#xa;   - Edit product details&#xa;   - Manage product variants&#xa;   - Delete or archive product&#xa;&#xa;&#xa;4. Inventory Management&#xa;   - Track inventory levels&#xa;   - Update inventory&#xa;   - Set reorder alerts&#xa;&#xa;&#xa;5. Sales Management&#xa;   - Create a new sale&#xa;   - Add items to a sale&#xa;   - Apply discounts or offers&#xa;   - Complete sale transaction&#xa;   - Void or refund a sale&#xa;&#xa;&#xa;6. Customer Management&#xa;   - Add new customer&#xa;   - Edit customer details&#xa;   - View customer purchase history&#xa;&#xa;&#xa;7. Reporting&#xa;   - Generate sales reports&#xa;   - View product performance&#xa;   - Export reports&#xa;&#xa;&#xa;8. Settings and Configuration&#xa;   - Manage user roles and permissions&#xa;   - Customize app settings&#xa;   - Update business information&#xa;&#xa;&#xa;9. Payment Processing&#xa;   - Select payment method&#xa;   - Process payment&#xa;   - Handle payment errors or declined transactions&#xa;&#xa;&#xa;10. Notifications and Alerts&#xa;    - View and manage notifications&#xa;    - Set up alerts for low inventory or sales targets" style="text;whiteSpace=wrap;" parent="1" vertex="1">
          <mxGeometry x="-330" y="40" width="380" height="890" as="geometry" />
        </mxCell>
        <mxCell id="KLkaMGFnh6U5lrwXZxZ8-27" style="edgeStyle=orthogonalEdgeStyle;rounded=0;orthogonalLoop=1;jettySize=auto;html=1;exitX=1;exitY=0.5;exitDx=0;exitDy=0;exitPerimeter=0;entryX=0;entryY=0.5;entryDx=0;entryDy=0;" parent="1" source="KLkaMGFnh6U5lrwXZxZ8-2" target="KLkaMGFnh6U5lrwXZxZ8-17" edge="1">
          <mxGeometry relative="1" as="geometry" />
        </mxCell>
        <mxCell id="KLkaMGFnh6U5lrwXZxZ8-2" value="Initiate password&lt;div&gt;reset process&lt;/div&gt;" style="strokeWidth=2;html=1;shape=mxgraph.flowchart.terminator;whiteSpace=wrap;rounded=0;labelBackgroundColor=none;shadow=1;" parent="1" vertex="1">
          <mxGeometry x="460" y="650" width="100" height="60" as="geometry" />
        </mxCell>
        <mxCell id="KLkaMGFnh6U5lrwXZxZ8-4" style="edgeStyle=orthogonalEdgeStyle;rounded=0;orthogonalLoop=1;jettySize=auto;html=1;exitX=1;exitY=0.5;exitDx=0;exitDy=0;entryX=0;entryY=0.5;entryDx=0;entryDy=0;entryPerimeter=0;" parent="1" source="KLkaMGFnh6U5lrwXZxZ8-15" target="ATMucfQL7mX6FEVvn_mT-16" edge="1">
          <mxGeometry relative="1" as="geometry">
            <mxPoint x="756" y="410" as="sourcePoint" />
          </mxGeometry>
        </mxCell>
        <mxCell id="KLkaMGFnh6U5lrwXZxZ8-10" style="edgeStyle=orthogonalEdgeStyle;rounded=0;orthogonalLoop=1;jettySize=auto;html=1;exitX=1;exitY=0.5;exitDx=0;exitDy=0;entryX=0;entryY=0.5;entryDx=0;entryDy=0;" parent="1" source="KLkaMGFnh6U5lrwXZxZ8-7" target="ATMucfQL7mX6FEVvn_mT-4" edge="1">
          <mxGeometry relative="1" as="geometry" />
        </mxCell>
        <mxCell id="KLkaMGFnh6U5lrwXZxZ8-7" value="User navigates to login screen" style="rounded=1;whiteSpace=wrap;html=1;absoluteArcSize=1;arcSize=14;strokeWidth=2;" parent="1" vertex="1">
          <mxGeometry x="640" y="50" width="100" height="100" as="geometry" />
        </mxCell>
        <mxCell id="KLkaMGFnh6U5lrwXZxZ8-12" value="Display an error message and provide option to retry" style="rounded=1;whiteSpace=wrap;html=1;absoluteArcSize=1;arcSize=14;strokeWidth=2;" parent="1" vertex="1">
          <mxGeometry x="1100" y="40" width="100" height="100" as="geometry" />
        </mxCell>
        <mxCell id="KLkaMGFnh6U5lrwXZxZ8-14" style="edgeStyle=orthogonalEdgeStyle;rounded=0;orthogonalLoop=1;jettySize=auto;html=1;exitX=1;exitY=0.5;exitDx=0;exitDy=0;exitPerimeter=0;entryX=-0.018;entryY=0.592;entryDx=0;entryDy=0;entryPerimeter=0;" parent="1" source="ATMucfQL7mX6FEVvn_mT-5" target="KLkaMGFnh6U5lrwXZxZ8-12" edge="1">
          <mxGeometry relative="1" as="geometry" />
        </mxCell>
        <mxCell id="KLkaMGFnh6U5lrwXZxZ8-15" value="System invalidates the jwt-cookie" style="rounded=1;whiteSpace=wrap;html=1;absoluteArcSize=1;arcSize=14;strokeWidth=2;" parent="1" vertex="1">
          <mxGeometry x="640" y="350" width="100" height="100" as="geometry" />
        </mxCell>
        <mxCell id="KLkaMGFnh6U5lrwXZxZ8-28" style="edgeStyle=orthogonalEdgeStyle;rounded=0;orthogonalLoop=1;jettySize=auto;html=1;exitX=1;exitY=0.5;exitDx=0;exitDy=0;entryX=0;entryY=0.5;entryDx=0;entryDy=0;" parent="1" source="KLkaMGFnh6U5lrwXZxZ8-17" target="KLkaMGFnh6U5lrwXZxZ8-19" edge="1">
          <mxGeometry relative="1" as="geometry" />
        </mxCell>
        <mxCell id="KLkaMGFnh6U5lrwXZxZ8-17" value="User enters email&lt;div&gt;and password&amp;nbsp;&lt;/div&gt;&lt;div&gt;on the password&lt;/div&gt;&lt;div&gt;reset page&lt;/div&gt;" style="shape=parallelogram;html=1;strokeWidth=2;perimeter=parallelogramPerimeter;whiteSpace=wrap;rounded=1;arcSize=12;size=0.23;" parent="1" vertex="1">
          <mxGeometry x="580" y="640" width="160" height="80" as="geometry" />
        </mxCell>
        <mxCell id="KLkaMGFnh6U5lrwXZxZ8-18" value="User checks email&lt;div&gt;&amp;nbsp;for the reset link&lt;/div&gt;" style="shape=parallelogram;html=1;strokeWidth=2;perimeter=parallelogramPerimeter;whiteSpace=wrap;rounded=1;arcSize=12;size=0.23;" parent="1" vertex="1">
          <mxGeometry x="905" y="635" width="150" height="90" as="geometry" />
        </mxCell>
        <mxCell id="KLkaMGFnh6U5lrwXZxZ8-29" style="edgeStyle=orthogonalEdgeStyle;rounded=0;orthogonalLoop=1;jettySize=auto;html=1;exitX=1;exitY=0.5;exitDx=0;exitDy=0;" parent="1" source="KLkaMGFnh6U5lrwXZxZ8-19" target="KLkaMGFnh6U5lrwXZxZ8-18" edge="1">
          <mxGeometry relative="1" as="geometry" />
        </mxCell>
        <mxCell id="KLkaMGFnh6U5lrwXZxZ8-19" value="System sends a password reset link to the provided email address" style="rounded=1;whiteSpace=wrap;html=1;absoluteArcSize=1;arcSize=14;strokeWidth=2;" parent="1" vertex="1">
          <mxGeometry x="780" y="630" width="100" height="100" as="geometry" />
        </mxCell>
        <mxCell id="KLkaMGFnh6U5lrwXZxZ8-31" style="edgeStyle=orthogonalEdgeStyle;rounded=0;orthogonalLoop=1;jettySize=auto;html=1;exitX=0.5;exitY=1;exitDx=0;exitDy=0;entryX=0.5;entryY=0;entryDx=0;entryDy=0;" parent="1" source="KLkaMGFnh6U5lrwXZxZ8-20" target="KLkaMGFnh6U5lrwXZxZ8-21" edge="1">
          <mxGeometry relative="1" as="geometry" />
        </mxCell>
        <mxCell id="KLkaMGFnh6U5lrwXZxZ8-20" value="User clicks reset&lt;div&gt;link that takes&amp;nbsp;&lt;/div&gt;&lt;div&gt;them to the password reset page&lt;/div&gt;" style="rounded=1;whiteSpace=wrap;html=1;absoluteArcSize=1;arcSize=14;strokeWidth=2;" parent="1" vertex="1">
          <mxGeometry x="1090" y="620" width="100" height="100" as="geometry" />
        </mxCell>
        <mxCell id="KLkaMGFnh6U5lrwXZxZ8-32" style="edgeStyle=orthogonalEdgeStyle;rounded=0;orthogonalLoop=1;jettySize=auto;html=1;exitX=0.5;exitY=1;exitDx=0;exitDy=0;entryX=0.5;entryY=0;entryDx=0;entryDy=0;" parent="1" source="KLkaMGFnh6U5lrwXZxZ8-21" target="KLkaMGFnh6U5lrwXZxZ8-22" edge="1">
          <mxGeometry relative="1" as="geometry" />
        </mxCell>
        <mxCell id="KLkaMGFnh6U5lrwXZxZ8-21" value="User enters new password" style="shape=parallelogram;html=1;strokeWidth=2;perimeter=parallelogramPerimeter;whiteSpace=wrap;rounded=1;arcSize=12;size=0.23;" parent="1" vertex="1">
          <mxGeometry x="1073.34" y="760" width="133.33" height="80" as="geometry" />
        </mxCell>
        <mxCell id="KLkaMGFnh6U5lrwXZxZ8-22" value="User submits&lt;div&gt;the password&lt;/div&gt;" style="rounded=1;whiteSpace=wrap;html=1;absoluteArcSize=1;arcSize=14;strokeWidth=2;" parent="1" vertex="1">
          <mxGeometry x="1080" y="880" width="100" height="100" as="geometry" />
        </mxCell>
        <mxCell id="KLkaMGFnh6U5lrwXZxZ8-34" style="edgeStyle=orthogonalEdgeStyle;rounded=0;orthogonalLoop=1;jettySize=auto;html=1;exitX=0.5;exitY=1;exitDx=0;exitDy=0;exitPerimeter=0;entryX=0.5;entryY=0;entryDx=0;entryDy=0;" parent="1" source="KLkaMGFnh6U5lrwXZxZ8-23" target="KLkaMGFnh6U5lrwXZxZ8-25" edge="1">
          <mxGeometry relative="1" as="geometry" />
        </mxCell>
        <mxCell id="KLkaMGFnh6U5lrwXZxZ8-36" style="edgeStyle=orthogonalEdgeStyle;rounded=0;orthogonalLoop=1;jettySize=auto;html=1;exitX=1;exitY=0.5;exitDx=0;exitDy=0;exitPerimeter=0;entryX=0;entryY=0.5;entryDx=0;entryDy=0;" parent="1" source="KLkaMGFnh6U5lrwXZxZ8-23" target="KLkaMGFnh6U5lrwXZxZ8-24" edge="1">
          <mxGeometry relative="1" as="geometry" />
        </mxCell>
        <mxCell id="KLkaMGFnh6U5lrwXZxZ8-23" value="Validate request" style="strokeWidth=2;html=1;shape=mxgraph.flowchart.decision;whiteSpace=wrap;" parent="1" vertex="1">
          <mxGeometry x="1080" y="1000" width="100" height="100" as="geometry" />
        </mxCell>
        <mxCell id="KLkaMGFnh6U5lrwXZxZ8-39" style="edgeStyle=orthogonalEdgeStyle;rounded=0;orthogonalLoop=1;jettySize=auto;html=1;exitX=0.5;exitY=0;exitDx=0;exitDy=0;entryX=1;entryY=0.5;entryDx=0;entryDy=0;" parent="1" source="KLkaMGFnh6U5lrwXZxZ8-24" target="KLkaMGFnh6U5lrwXZxZ8-21" edge="1">
          <mxGeometry relative="1" as="geometry">
            <Array as="points">
              <mxPoint x="1290" y="800" />
            </Array>
          </mxGeometry>
        </mxCell>
        <mxCell id="KLkaMGFnh6U5lrwXZxZ8-24" value="Display an error&lt;div&gt;message in&amp;nbsp;&lt;/div&gt;&lt;div&gt;the form&lt;/div&gt;" style="rounded=1;whiteSpace=wrap;html=1;absoluteArcSize=1;arcSize=14;strokeWidth=2;" parent="1" vertex="1">
          <mxGeometry x="1240" y="1000" width="100" height="100" as="geometry" />
        </mxCell>
        <mxCell id="KLkaMGFnh6U5lrwXZxZ8-25" value="Update password on system and&amp;nbsp;&lt;div&gt;send success&lt;/div&gt;&lt;div&gt;message&lt;/div&gt;" style="rounded=1;whiteSpace=wrap;html=1;absoluteArcSize=1;arcSize=14;strokeWidth=2;" parent="1" vertex="1">
          <mxGeometry x="1080" y="1140" width="100" height="100" as="geometry" />
        </mxCell>
        <mxCell id="KLkaMGFnh6U5lrwXZxZ8-26" value="Password reset&lt;div&gt;successful&lt;/div&gt;" style="strokeWidth=2;html=1;shape=mxgraph.flowchart.start_1;whiteSpace=wrap;" parent="1" vertex="1">
          <mxGeometry x="1073.34" y="1270" width="100" height="60" as="geometry" />
        </mxCell>
        <mxCell id="KLkaMGFnh6U5lrwXZxZ8-30" style="edgeStyle=orthogonalEdgeStyle;rounded=0;orthogonalLoop=1;jettySize=auto;html=1;exitX=1;exitY=0.5;exitDx=0;exitDy=0;entryX=-0.006;entryY=0.598;entryDx=0;entryDy=0;entryPerimeter=0;" parent="1" source="KLkaMGFnh6U5lrwXZxZ8-18" target="KLkaMGFnh6U5lrwXZxZ8-20" edge="1">
          <mxGeometry relative="1" as="geometry" />
        </mxCell>
        <mxCell id="KLkaMGFnh6U5lrwXZxZ8-33" style="edgeStyle=orthogonalEdgeStyle;rounded=0;orthogonalLoop=1;jettySize=auto;html=1;exitX=0.5;exitY=1;exitDx=0;exitDy=0;entryX=0.5;entryY=0;entryDx=0;entryDy=0;entryPerimeter=0;" parent="1" source="KLkaMGFnh6U5lrwXZxZ8-22" target="KLkaMGFnh6U5lrwXZxZ8-23" edge="1">
          <mxGeometry relative="1" as="geometry" />
        </mxCell>
        <mxCell id="KLkaMGFnh6U5lrwXZxZ8-35" style="edgeStyle=orthogonalEdgeStyle;rounded=0;orthogonalLoop=1;jettySize=auto;html=1;exitX=0.5;exitY=1;exitDx=0;exitDy=0;entryX=0.5;entryY=0;entryDx=0;entryDy=0;entryPerimeter=0;" parent="1" source="KLkaMGFnh6U5lrwXZxZ8-25" target="KLkaMGFnh6U5lrwXZxZ8-26" edge="1">
          <mxGeometry relative="1" as="geometry" />
        </mxCell>
        <mxCell id="3nHdeg5CLA1Ou0qOZPsk-1" value="1. **Sign Up**&#xa;   - User navigates to the sign-up page.&#xa;   - User enters required information (e.g., email, password).&#xa;   - User submits the form.&#xa;   - System creates a new account and sends a confirmation email.&#xa;   - User confirms the email address (if required).&#xa;   - System redirects the user to the login page or dashboard.&#xa;&#xa;&#xa;2. **Log In**&#xa;   - User navigates to the login page.&#xa;   - User enters email and password.&#xa;   - User submits the login form.&#xa;   - System verifies credentials and generates a JWT cookie.&#xa;   - System redirects the user to the dashboard or previous page.&#xa;&#xa;&#xa;3. **Log Out**&#xa;   - User selects the log out option.&#xa;   - System invalidates the JWT cookie.&#xa;   - System redirects the user to the login page.&#xa;&#xa;&#xa;4. **Password Reset**&#xa;   - User navigates to the password reset page.&#xa;   - User enters their email address.&#xa;   - System sends a password reset link to the user&#39;s email.&#xa;   - User follows the link to a reset password page.&#xa;   - User enters and confirms a new password.&#xa;   - System updates the password and redirects the user to the login page." style="text;whiteSpace=wrap;" vertex="1" parent="1">
          <mxGeometry y="350" width="430" height="460" as="geometry" />
        </mxCell>
      </root>
    </mxGraphModel>
  </diagram>
  <diagram id="8Ey6CvOB55q3MK9NUdou" name="Dashboard">
    <mxGraphModel dx="1615" dy="803" grid="1" gridSize="10" guides="1" tooltips="1" connect="1" arrows="1" fold="1" page="1" pageScale="1" pageWidth="827" pageHeight="1169" math="0" shadow="0">
      <root>
        <mxCell id="0" />
        <mxCell id="1" parent="0" />
        <mxCell id="ET9BGdN6wAJWBJ6dI6yu-1" value="1. User Authentication&#xa;   - Sign up&#xa;   - Log in&#xa;   - Log out&#xa;   - Password reset&#xa;&#xa;&#xa;2. Dashboard Access&#xa;   - View dashboard&#xa;   - Navigate to different sections (e.g., Products, Sales, Reports)&#xa;&#xa;&#xa;3. Product Management&#xa;   - Add product&#xa;   - Edit product details&#xa;   - Manage product variants&#xa;   - Delete or archive product&#xa;&#xa;&#xa;4. Inventory Management&#xa;   - Track inventory levels&#xa;   - Update inventory&#xa;   - Set reorder alerts&#xa;&#xa;&#xa;5. Sales Management&#xa;   - Create a new sale&#xa;   - Add items to a sale&#xa;   - Apply discounts or offers&#xa;   - Complete sale transaction&#xa;   - Void or refund a sale&#xa;&#xa;&#xa;6. Customer Management&#xa;   - Add new customer&#xa;   - Edit customer details&#xa;   - View customer purchase history&#xa;&#xa;&#xa;7. Reporting&#xa;   - Generate sales reports&#xa;   - View product performance&#xa;   - Export reports&#xa;&#xa;&#xa;8. Settings and Configuration&#xa;   - Manage user roles and permissions&#xa;   - Customize app settings&#xa;   - Update business information&#xa;&#xa;&#xa;9. Payment Processing&#xa;   - Select payment method&#xa;   - Process payment&#xa;   - Handle payment errors or declined transactions&#xa;&#xa;&#xa;10. Notifications and Alerts&#xa;    - View and manage notifications&#xa;    - Set up alerts for low inventory or sales targets" style="text;whiteSpace=wrap;" parent="1" vertex="1">
          <mxGeometry x="10" y="10" width="380" height="890" as="geometry" />
        </mxCell>
        <mxCell id="68NjNx0a_AqUf3TJoTM--5" style="edgeStyle=orthogonalEdgeStyle;rounded=0;orthogonalLoop=1;jettySize=auto;html=1;exitX=1;exitY=0.5;exitDx=0;exitDy=0;exitPerimeter=0;entryX=0;entryY=0.5;entryDx=0;entryDy=0;" edge="1" parent="1" source="68NjNx0a_AqUf3TJoTM--2" target="68NjNx0a_AqUf3TJoTM--3">
          <mxGeometry relative="1" as="geometry" />
        </mxCell>
        <mxCell id="68NjNx0a_AqUf3TJoTM--2" value="User logs in and is redirected to the dashboard" style="strokeWidth=2;html=1;shape=mxgraph.flowchart.start_1;whiteSpace=wrap;" vertex="1" parent="1">
          <mxGeometry x="480" y="595" width="133.33" height="80" as="geometry" />
        </mxCell>
        <mxCell id="68NjNx0a_AqUf3TJoTM--6" style="edgeStyle=orthogonalEdgeStyle;rounded=0;orthogonalLoop=1;jettySize=auto;html=1;exitX=1;exitY=0.5;exitDx=0;exitDy=0;entryX=0;entryY=0.5;entryDx=0;entryDy=0;" edge="1" parent="1" source="68NjNx0a_AqUf3TJoTM--3" target="68NjNx0a_AqUf3TJoTM--4">
          <mxGeometry relative="1" as="geometry" />
        </mxCell>
        <mxCell id="68NjNx0a_AqUf3TJoTM--3" value="System displays an overview of key metrics (e.g. sales, inventory, etc)" style="rounded=1;whiteSpace=wrap;html=1;absoluteArcSize=1;arcSize=14;strokeWidth=2;" vertex="1" parent="1">
          <mxGeometry x="680" y="585" width="100" height="100" as="geometry" />
        </mxCell>
        <mxCell id="68NjNx0a_AqUf3TJoTM--4" value="User reviews information presented on the dashboard" style="rounded=1;whiteSpace=wrap;html=1;absoluteArcSize=1;arcSize=14;strokeWidth=2;" vertex="1" parent="1">
          <mxGeometry x="860" y="585" width="100" height="100" as="geometry" />
        </mxCell>
        <mxCell id="68NjNx0a_AqUf3TJoTM--10" style="edgeStyle=orthogonalEdgeStyle;rounded=0;orthogonalLoop=1;jettySize=auto;html=1;exitX=1;exitY=0.5;exitDx=0;exitDy=0;exitPerimeter=0;entryX=0;entryY=0.5;entryDx=0;entryDy=0;" edge="1" parent="1" source="68NjNx0a_AqUf3TJoTM--7" target="68NjNx0a_AqUf3TJoTM--8">
          <mxGeometry relative="1" as="geometry" />
        </mxCell>
        <mxCell id="68NjNx0a_AqUf3TJoTM--7" value="From the dashboard, the user selects a section" style="strokeWidth=2;html=1;shape=mxgraph.flowchart.start_1;whiteSpace=wrap;" vertex="1" parent="1">
          <mxGeometry x="450" y="740" width="166.67" height="100" as="geometry" />
        </mxCell>
        <mxCell id="68NjNx0a_AqUf3TJoTM--11" style="edgeStyle=orthogonalEdgeStyle;rounded=0;orthogonalLoop=1;jettySize=auto;html=1;exitX=1;exitY=0.5;exitDx=0;exitDy=0;entryX=0;entryY=0.5;entryDx=0;entryDy=0;" edge="1" parent="1" source="68NjNx0a_AqUf3TJoTM--8" target="68NjNx0a_AqUf3TJoTM--9">
          <mxGeometry relative="1" as="geometry" />
        </mxCell>
        <mxCell id="68NjNx0a_AqUf3TJoTM--8" value="System redirects user to the selected section" style="rounded=1;whiteSpace=wrap;html=1;absoluteArcSize=1;arcSize=14;strokeWidth=2;" vertex="1" parent="1">
          <mxGeometry x="680" y="740" width="100" height="100" as="geometry" />
        </mxCell>
        <mxCell id="68NjNx0a_AqUf3TJoTM--9" value="User interacts with the selected section as needed" style="rounded=1;whiteSpace=wrap;html=1;absoluteArcSize=1;arcSize=14;strokeWidth=2;" vertex="1" parent="1">
          <mxGeometry x="830" y="732" width="115" height="115" as="geometry" />
        </mxCell>
        <mxCell id="Pe-H3QMwWFV3X3XAD8rP-1" value="1. **Sign Up**&#xa;   - User navigates to the sign-up page.&#xa;   - User enters required information (e.g., email, password).&#xa;   - User submits the form.&#xa;   - System creates a new account and sends a confirmation email.&#xa;   - User confirms the email address (if required).&#xa;   - System redirects the user to the login page or dashboard.&#xa;&#xa;&#xa;2. **Log In**&#xa;   - User navigates to the login page.&#xa;   - User enters email and password.&#xa;   - User submits the login form.&#xa;   - System verifies credentials and generates a JWT cookie.&#xa;   - System redirects the user to the dashboard or previous page.&#xa;&#xa;&#xa;3. **Log Out**&#xa;   - User selects the log out option.&#xa;   - System invalidates the JWT cookie.&#xa;   - System redirects the user to the login page.&#xa;&#xa;&#xa;4. **Password Reset**&#xa;   - User navigates to the password reset page.&#xa;   - User enters their email address.&#xa;   - System sends a password reset link to the user&#39;s email.&#xa;   - User follows the link to a reset password page.&#xa;   - User enters and confirms a new password.&#xa;   - System updates the password and redirects the user to the login page." style="text;whiteSpace=wrap;" vertex="1" parent="1">
          <mxGeometry x="440" width="430" height="460" as="geometry" />
        </mxCell>
      </root>
    </mxGraphModel>
  </diagram>
  <diagram id="oy20ObqP9nqBbCuuLZpR" name="Product Management">
    <mxGraphModel dx="2927" dy="1044" grid="1" gridSize="10" guides="1" tooltips="1" connect="1" arrows="1" fold="1" page="1" pageScale="1" pageWidth="827" pageHeight="1169" math="0" shadow="0">
      <root>
        <mxCell id="0" />
        <mxCell id="1" parent="0" />
        <mxCell id="02m3XyDNFQBm8fWto4tQ-1" value="1. **Add Product**&#xa;   - User navigates to the Products section from the dashboard.&#xa;   - User selects the option to add a new product.&#xa;   - System prompts the user to enter product details (e.g., name, description, category, price).&#xa;   - User submits the form.&#xa;   - System saves the product and confirms the addition.&#xa;&#xa;&#xa;2. **Edit Product Details**&#xa;   - User navigates to the Products section and selects an existing product.&#xa;   - System displays the product details with an option to edit.&#xa;   - User updates the necessary fields (e.g., name, price, description).&#xa;   - User submits the changes.&#xa;   - System saves the updates and confirms the changes.&#xa;&#xa;&#xa;3. **Manage Product Variants**&#xa;   - User selects a product to manage its variants.&#xa;   - System displays the existing variants and an option to add or edit variants.&#xa;   - User adds a new variant or edits an existing one (e.g., size, color, packaging).&#xa;   - User submits the variant information.&#xa;   - System updates the product with the new or edited variant.&#xa;&#xa;&#xa;4. **Delete or Archive Product**&#xa;   - User selects a product to delete or archive from the Products section.&#xa;   - System prompts the user to confirm the action.&#xa;   - If deleting, the system removes the product from the catalog.&#xa;   - If archiving, the system moves the product to an archived state, where it is no longer active but can be restored later.&#xa;   - System confirms the product has been deleted or archived." style="text;whiteSpace=wrap;" vertex="1" parent="1">
          <mxGeometry x="-540" y="1180" width="560" height="470" as="geometry" />
        </mxCell>
        <mxCell id="90HHAPKfToBtOzx2FQQZ-1" style="edgeStyle=orthogonalEdgeStyle;rounded=0;orthogonalLoop=1;jettySize=auto;html=1;exitX=1;exitY=0.5;exitDx=0;exitDy=0;exitPerimeter=0;entryX=0;entryY=0.5;entryDx=0;entryDy=0;" edge="1" parent="1" source="02m3XyDNFQBm8fWto4tQ-2" target="02m3XyDNFQBm8fWto4tQ-4">
          <mxGeometry relative="1" as="geometry" />
        </mxCell>
        <mxCell id="02m3XyDNFQBm8fWto4tQ-2" value="User navigates to the products section from the dashboard" style="strokeWidth=2;html=1;shape=mxgraph.flowchart.start_1;whiteSpace=wrap;" vertex="1" parent="1">
          <mxGeometry x="40" y="440" width="150" height="90" as="geometry" />
        </mxCell>
        <mxCell id="90HHAPKfToBtOzx2FQQZ-2" style="edgeStyle=orthogonalEdgeStyle;rounded=0;orthogonalLoop=1;jettySize=auto;html=1;exitX=1;exitY=0.5;exitDx=0;exitDy=0;entryX=0;entryY=0.5;entryDx=0;entryDy=0;" edge="1" parent="1" source="02m3XyDNFQBm8fWto4tQ-4" target="02m3XyDNFQBm8fWto4tQ-5">
          <mxGeometry relative="1" as="geometry" />
        </mxCell>
        <mxCell id="02m3XyDNFQBm8fWto4tQ-4" value="User selects the option to add a new product" style="rounded=1;whiteSpace=wrap;html=1;absoluteArcSize=1;arcSize=14;strokeWidth=2;" vertex="1" parent="1">
          <mxGeometry x="260" y="435" width="100" height="100" as="geometry" />
        </mxCell>
        <mxCell id="90HHAPKfToBtOzx2FQQZ-3" style="edgeStyle=orthogonalEdgeStyle;rounded=0;orthogonalLoop=1;jettySize=auto;html=1;exitX=1;exitY=0.5;exitDx=0;exitDy=0;entryX=0;entryY=0.5;entryDx=0;entryDy=0;" edge="1" parent="1" source="02m3XyDNFQBm8fWto4tQ-5" target="02m3XyDNFQBm8fWto4tQ-6">
          <mxGeometry relative="1" as="geometry" />
        </mxCell>
        <mxCell id="02m3XyDNFQBm8fWto4tQ-5" value="System prompts the user to enter product details" style="shape=parallelogram;html=1;strokeWidth=2;perimeter=parallelogramPerimeter;whiteSpace=wrap;rounded=1;arcSize=12;size=0.23;" vertex="1" parent="1">
          <mxGeometry x="410" y="440" width="141.67" height="85" as="geometry" />
        </mxCell>
        <mxCell id="02m3XyDNFQBm8fWto4tQ-6" value="User submits the form" style="rounded=1;whiteSpace=wrap;html=1;absoluteArcSize=1;arcSize=14;strokeWidth=2;" vertex="1" parent="1">
          <mxGeometry x="620" y="435" width="100" height="100" as="geometry" />
        </mxCell>
        <mxCell id="90HHAPKfToBtOzx2FQQZ-5" style="edgeStyle=orthogonalEdgeStyle;rounded=0;orthogonalLoop=1;jettySize=auto;html=1;exitX=0.5;exitY=1;exitDx=0;exitDy=0;exitPerimeter=0;entryX=0.5;entryY=0;entryDx=0;entryDy=0;" edge="1" parent="1" source="02m3XyDNFQBm8fWto4tQ-8" target="02m3XyDNFQBm8fWto4tQ-9">
          <mxGeometry relative="1" as="geometry" />
        </mxCell>
        <mxCell id="90HHAPKfToBtOzx2FQQZ-23" style="edgeStyle=orthogonalEdgeStyle;rounded=0;orthogonalLoop=1;jettySize=auto;html=1;exitX=1;exitY=0.5;exitDx=0;exitDy=0;exitPerimeter=0;entryX=0;entryY=0.5;entryDx=0;entryDy=0;" edge="1" parent="1" source="02m3XyDNFQBm8fWto4tQ-8" target="90HHAPKfToBtOzx2FQQZ-21">
          <mxGeometry relative="1" as="geometry" />
        </mxCell>
        <mxCell id="02m3XyDNFQBm8fWto4tQ-8" value="System validates" style="strokeWidth=2;html=1;shape=mxgraph.flowchart.decision;whiteSpace=wrap;" vertex="1" parent="1">
          <mxGeometry x="620" y="585" width="125" height="125" as="geometry" />
        </mxCell>
        <mxCell id="02m3XyDNFQBm8fWto4tQ-9" value="System saves the product and confirms the addition" style="rounded=1;whiteSpace=wrap;html=1;absoluteArcSize=1;arcSize=14;strokeWidth=2;" vertex="1" parent="1">
          <mxGeometry x="632.5" y="760" width="100" height="100" as="geometry" />
        </mxCell>
        <mxCell id="90HHAPKfToBtOzx2FQQZ-4" style="edgeStyle=orthogonalEdgeStyle;rounded=0;orthogonalLoop=1;jettySize=auto;html=1;exitX=0.5;exitY=1;exitDx=0;exitDy=0;entryX=0.5;entryY=0;entryDx=0;entryDy=0;entryPerimeter=0;" edge="1" parent="1" source="02m3XyDNFQBm8fWto4tQ-6" target="02m3XyDNFQBm8fWto4tQ-8">
          <mxGeometry relative="1" as="geometry" />
        </mxCell>
        <mxCell id="90HHAPKfToBtOzx2FQQZ-13" style="edgeStyle=orthogonalEdgeStyle;rounded=0;orthogonalLoop=1;jettySize=auto;html=1;exitX=1;exitY=0.5;exitDx=0;exitDy=0;exitPerimeter=0;entryX=0;entryY=0.5;entryDx=0;entryDy=0;" edge="1" parent="1" source="90HHAPKfToBtOzx2FQQZ-6" target="90HHAPKfToBtOzx2FQQZ-7">
          <mxGeometry relative="1" as="geometry" />
        </mxCell>
        <mxCell id="90HHAPKfToBtOzx2FQQZ-6" value="User navigates to the products section and selects an existing product" style="strokeWidth=2;html=1;shape=mxgraph.flowchart.start_1;whiteSpace=wrap;" vertex="1" parent="1">
          <mxGeometry x="40" y="1052.5" width="166.66" height="100" as="geometry" />
        </mxCell>
        <mxCell id="90HHAPKfToBtOzx2FQQZ-14" style="edgeStyle=orthogonalEdgeStyle;rounded=0;orthogonalLoop=1;jettySize=auto;html=1;exitX=1;exitY=0.5;exitDx=0;exitDy=0;entryX=0;entryY=0.5;entryDx=0;entryDy=0;" edge="1" parent="1" source="90HHAPKfToBtOzx2FQQZ-7" target="90HHAPKfToBtOzx2FQQZ-8">
          <mxGeometry relative="1" as="geometry" />
        </mxCell>
        <mxCell id="90HHAPKfToBtOzx2FQQZ-7" value="System displays product details with an option to edit" style="rounded=1;whiteSpace=wrap;html=1;absoluteArcSize=1;arcSize=14;strokeWidth=2;" vertex="1" parent="1">
          <mxGeometry x="260" y="1052.5" width="100" height="100" as="geometry" />
        </mxCell>
        <mxCell id="90HHAPKfToBtOzx2FQQZ-8" value="User updates the necessary fields" style="shape=parallelogram;html=1;strokeWidth=2;perimeter=parallelogramPerimeter;whiteSpace=wrap;rounded=1;arcSize=12;size=0.23;" vertex="1" parent="1">
          <mxGeometry x="431" y="1072.5" width="100" height="60" as="geometry" />
        </mxCell>
        <mxCell id="90HHAPKfToBtOzx2FQQZ-9" value="System saves the product and&lt;div&gt;confirms the action&lt;/div&gt;" style="rounded=1;whiteSpace=wrap;html=1;absoluteArcSize=1;arcSize=14;strokeWidth=2;" vertex="1" parent="1">
          <mxGeometry x="592.5" y="1212.5" width="100" height="100" as="geometry" />
        </mxCell>
        <mxCell id="90HHAPKfToBtOzx2FQQZ-16" style="edgeStyle=orthogonalEdgeStyle;rounded=0;orthogonalLoop=1;jettySize=auto;html=1;exitX=1;exitY=0.5;exitDx=0;exitDy=0;exitPerimeter=0;entryX=0;entryY=0.5;entryDx=0;entryDy=0;" edge="1" parent="1" source="90HHAPKfToBtOzx2FQQZ-10" target="90HHAPKfToBtOzx2FQQZ-11">
          <mxGeometry relative="1" as="geometry" />
        </mxCell>
        <mxCell id="90HHAPKfToBtOzx2FQQZ-20" style="edgeStyle=orthogonalEdgeStyle;rounded=0;orthogonalLoop=1;jettySize=auto;html=1;exitX=0.5;exitY=1;exitDx=0;exitDy=0;exitPerimeter=0;entryX=0.5;entryY=0;entryDx=0;entryDy=0;" edge="1" parent="1" source="90HHAPKfToBtOzx2FQQZ-10" target="90HHAPKfToBtOzx2FQQZ-9">
          <mxGeometry relative="1" as="geometry" />
        </mxCell>
        <mxCell id="90HHAPKfToBtOzx2FQQZ-10" value="System validates" style="strokeWidth=2;html=1;shape=mxgraph.flowchart.decision;whiteSpace=wrap;" vertex="1" parent="1">
          <mxGeometry x="580" y="1040" width="125" height="125" as="geometry" />
        </mxCell>
        <mxCell id="90HHAPKfToBtOzx2FQQZ-17" style="edgeStyle=orthogonalEdgeStyle;rounded=0;orthogonalLoop=1;jettySize=auto;html=1;exitX=1;exitY=0.5;exitDx=0;exitDy=0;entryX=0;entryY=0.5;entryDx=0;entryDy=0;" edge="1" parent="1" source="90HHAPKfToBtOzx2FQQZ-11" target="90HHAPKfToBtOzx2FQQZ-12">
          <mxGeometry relative="1" as="geometry" />
        </mxCell>
        <mxCell id="90HHAPKfToBtOzx2FQQZ-11" value="System displays invalid fields on form" style="rounded=1;whiteSpace=wrap;html=1;absoluteArcSize=1;arcSize=14;strokeWidth=2;" vertex="1" parent="1">
          <mxGeometry x="770" y="1052.5" width="100" height="100" as="geometry" />
        </mxCell>
        <mxCell id="90HHAPKfToBtOzx2FQQZ-12" value="User updates the necessary fields" style="shape=parallelogram;html=1;strokeWidth=2;perimeter=parallelogramPerimeter;whiteSpace=wrap;rounded=1;arcSize=12;size=0.23;" vertex="1" parent="1">
          <mxGeometry x="940" y="1057.5" width="150" height="90" as="geometry" />
        </mxCell>
        <mxCell id="90HHAPKfToBtOzx2FQQZ-15" style="edgeStyle=orthogonalEdgeStyle;rounded=0;orthogonalLoop=1;jettySize=auto;html=1;exitX=1;exitY=0.5;exitDx=0;exitDy=0;entryX=0;entryY=0.5;entryDx=0;entryDy=0;entryPerimeter=0;" edge="1" parent="1" source="90HHAPKfToBtOzx2FQQZ-8" target="90HHAPKfToBtOzx2FQQZ-10">
          <mxGeometry relative="1" as="geometry" />
        </mxCell>
        <mxCell id="90HHAPKfToBtOzx2FQQZ-18" style="edgeStyle=orthogonalEdgeStyle;rounded=0;orthogonalLoop=1;jettySize=auto;html=1;exitX=0.5;exitY=0;exitDx=0;exitDy=0;entryX=0.5;entryY=0;entryDx=0;entryDy=0;entryPerimeter=0;" edge="1" parent="1" source="90HHAPKfToBtOzx2FQQZ-12" target="90HHAPKfToBtOzx2FQQZ-10">
          <mxGeometry relative="1" as="geometry">
            <Array as="points">
              <mxPoint x="1015" y="980" />
              <mxPoint x="643" y="980" />
            </Array>
          </mxGeometry>
        </mxCell>
        <mxCell id="90HHAPKfToBtOzx2FQQZ-24" style="edgeStyle=orthogonalEdgeStyle;rounded=0;orthogonalLoop=1;jettySize=auto;html=1;exitX=1;exitY=0.5;exitDx=0;exitDy=0;entryX=0;entryY=0.5;entryDx=0;entryDy=0;" edge="1" parent="1" source="90HHAPKfToBtOzx2FQQZ-21" target="90HHAPKfToBtOzx2FQQZ-22">
          <mxGeometry relative="1" as="geometry" />
        </mxCell>
        <mxCell id="90HHAPKfToBtOzx2FQQZ-21" value="System displays invalid fields on form" style="rounded=1;whiteSpace=wrap;html=1;absoluteArcSize=1;arcSize=14;strokeWidth=2;" vertex="1" parent="1">
          <mxGeometry x="800" y="597.5" width="100" height="100" as="geometry" />
        </mxCell>
        <mxCell id="90HHAPKfToBtOzx2FQQZ-22" value="User updates the necessary fields" style="shape=parallelogram;html=1;strokeWidth=2;perimeter=parallelogramPerimeter;whiteSpace=wrap;rounded=1;arcSize=12;size=0.23;" vertex="1" parent="1">
          <mxGeometry x="940" y="600" width="150" height="90" as="geometry" />
        </mxCell>
        <mxCell id="90HHAPKfToBtOzx2FQQZ-25" style="edgeStyle=orthogonalEdgeStyle;rounded=0;orthogonalLoop=1;jettySize=auto;html=1;exitX=0.5;exitY=0;exitDx=0;exitDy=0;entryX=0.5;entryY=0;entryDx=0;entryDy=0;entryPerimeter=0;" edge="1" parent="1" source="90HHAPKfToBtOzx2FQQZ-22" target="02m3XyDNFQBm8fWto4tQ-8">
          <mxGeometry relative="1" as="geometry">
            <Array as="points">
              <mxPoint x="1015" y="560" />
              <mxPoint x="683" y="560" />
            </Array>
          </mxGeometry>
        </mxCell>
        <mxCell id="90HHAPKfToBtOzx2FQQZ-34" style="edgeStyle=orthogonalEdgeStyle;rounded=0;orthogonalLoop=1;jettySize=auto;html=1;exitX=1;exitY=0.5;exitDx=0;exitDy=0;exitPerimeter=0;entryX=0;entryY=0.5;entryDx=0;entryDy=0;" edge="1" parent="1" source="90HHAPKfToBtOzx2FQQZ-26" target="90HHAPKfToBtOzx2FQQZ-27">
          <mxGeometry relative="1" as="geometry" />
        </mxCell>
        <mxCell id="90HHAPKfToBtOzx2FQQZ-26" value="User selects a product to manage its variants" style="strokeWidth=2;html=1;shape=mxgraph.flowchart.start_1;whiteSpace=wrap;" vertex="1" parent="1">
          <mxGeometry x="65" y="1410" width="150" height="90" as="geometry" />
        </mxCell>
        <mxCell id="90HHAPKfToBtOzx2FQQZ-35" style="edgeStyle=orthogonalEdgeStyle;rounded=0;orthogonalLoop=1;jettySize=auto;html=1;exitX=1;exitY=0.5;exitDx=0;exitDy=0;entryX=0;entryY=0.5;entryDx=0;entryDy=0;" edge="1" parent="1" source="90HHAPKfToBtOzx2FQQZ-27" target="90HHAPKfToBtOzx2FQQZ-28">
          <mxGeometry relative="1" as="geometry" />
        </mxCell>
        <mxCell id="90HHAPKfToBtOzx2FQQZ-27" value="System displays the existing variants with an option to add or edit variants" style="rounded=1;whiteSpace=wrap;html=1;absoluteArcSize=1;arcSize=14;strokeWidth=2;" vertex="1" parent="1">
          <mxGeometry x="260" y="1405" width="100" height="100" as="geometry" />
        </mxCell>
        <mxCell id="90HHAPKfToBtOzx2FQQZ-36" style="edgeStyle=orthogonalEdgeStyle;rounded=0;orthogonalLoop=1;jettySize=auto;html=1;exitX=1;exitY=0.5;exitDx=0;exitDy=0;entryX=0;entryY=0.5;entryDx=0;entryDy=0;" edge="1" parent="1" source="90HHAPKfToBtOzx2FQQZ-28" target="90HHAPKfToBtOzx2FQQZ-29">
          <mxGeometry relative="1" as="geometry" />
        </mxCell>
        <mxCell id="90HHAPKfToBtOzx2FQQZ-28" value="User updates the necessary fields" style="shape=parallelogram;html=1;strokeWidth=2;perimeter=parallelogramPerimeter;whiteSpace=wrap;rounded=1;arcSize=12;size=0.23;" vertex="1" parent="1">
          <mxGeometry x="421.66999999999996" y="1407.5" width="158.33" height="95" as="geometry" />
        </mxCell>
        <mxCell id="90HHAPKfToBtOzx2FQQZ-29" value="User submits the changes" style="rounded=1;whiteSpace=wrap;html=1;absoluteArcSize=1;arcSize=14;strokeWidth=2;" vertex="1" parent="1">
          <mxGeometry x="633" y="1405" width="100" height="100" as="geometry" />
        </mxCell>
        <mxCell id="90HHAPKfToBtOzx2FQQZ-38" style="edgeStyle=orthogonalEdgeStyle;rounded=0;orthogonalLoop=1;jettySize=auto;html=1;exitX=1;exitY=0.5;exitDx=0;exitDy=0;exitPerimeter=0;entryX=0;entryY=0.5;entryDx=0;entryDy=0;" edge="1" parent="1" source="90HHAPKfToBtOzx2FQQZ-30" target="90HHAPKfToBtOzx2FQQZ-31">
          <mxGeometry relative="1" as="geometry" />
        </mxCell>
        <mxCell id="90HHAPKfToBtOzx2FQQZ-40" style="edgeStyle=orthogonalEdgeStyle;rounded=0;orthogonalLoop=1;jettySize=auto;html=1;exitX=0.5;exitY=1;exitDx=0;exitDy=0;exitPerimeter=0;entryX=0.5;entryY=0;entryDx=0;entryDy=0;" edge="1" parent="1" source="90HHAPKfToBtOzx2FQQZ-30" target="90HHAPKfToBtOzx2FQQZ-33">
          <mxGeometry relative="1" as="geometry" />
        </mxCell>
        <mxCell id="90HHAPKfToBtOzx2FQQZ-30" value="System validates" style="strokeWidth=2;html=1;shape=mxgraph.flowchart.decision;whiteSpace=wrap;" vertex="1" parent="1">
          <mxGeometry x="770" y="1400" width="125" height="125" as="geometry" />
        </mxCell>
        <mxCell id="90HHAPKfToBtOzx2FQQZ-39" style="edgeStyle=orthogonalEdgeStyle;rounded=0;orthogonalLoop=1;jettySize=auto;html=1;exitX=1;exitY=0.5;exitDx=0;exitDy=0;entryX=0;entryY=0.5;entryDx=0;entryDy=0;" edge="1" parent="1" source="90HHAPKfToBtOzx2FQQZ-31" target="90HHAPKfToBtOzx2FQQZ-32">
          <mxGeometry relative="1" as="geometry" />
        </mxCell>
        <mxCell id="90HHAPKfToBtOzx2FQQZ-31" value="System displays invalid fields on form" style="rounded=1;whiteSpace=wrap;html=1;absoluteArcSize=1;arcSize=14;strokeWidth=2;" vertex="1" parent="1">
          <mxGeometry x="960" y="1412.5" width="100" height="100" as="geometry" />
        </mxCell>
        <mxCell id="90HHAPKfToBtOzx2FQQZ-32" value="User updates the necessary fields" style="shape=parallelogram;html=1;strokeWidth=2;perimeter=parallelogramPerimeter;whiteSpace=wrap;rounded=1;arcSize=12;size=0.23;" vertex="1" parent="1">
          <mxGeometry x="1130" y="1417.5" width="150" height="90" as="geometry" />
        </mxCell>
        <mxCell id="90HHAPKfToBtOzx2FQQZ-33" value="System saves the product and&lt;div&gt;confirms the action&lt;/div&gt;" style="rounded=1;whiteSpace=wrap;html=1;absoluteArcSize=1;arcSize=14;strokeWidth=2;" vertex="1" parent="1">
          <mxGeometry x="782.5" y="1590" width="100" height="100" as="geometry" />
        </mxCell>
        <mxCell id="90HHAPKfToBtOzx2FQQZ-37" style="edgeStyle=orthogonalEdgeStyle;rounded=0;orthogonalLoop=1;jettySize=auto;html=1;exitX=1;exitY=0.5;exitDx=0;exitDy=0;entryX=0;entryY=0.5;entryDx=0;entryDy=0;entryPerimeter=0;" edge="1" parent="1" source="90HHAPKfToBtOzx2FQQZ-29" target="90HHAPKfToBtOzx2FQQZ-30">
          <mxGeometry relative="1" as="geometry" />
        </mxCell>
        <mxCell id="90HHAPKfToBtOzx2FQQZ-41" style="edgeStyle=orthogonalEdgeStyle;rounded=0;orthogonalLoop=1;jettySize=auto;html=1;exitX=1;exitY=0.5;exitDx=0;exitDy=0;exitPerimeter=0;entryX=0;entryY=0.5;entryDx=0;entryDy=0;" edge="1" source="90HHAPKfToBtOzx2FQQZ-42" target="90HHAPKfToBtOzx2FQQZ-44" parent="1">
          <mxGeometry relative="1" as="geometry" />
        </mxCell>
        <mxCell id="90HHAPKfToBtOzx2FQQZ-42" value="User selects a product&amp;nbsp;&lt;div&gt;to delete or archive from the products section&lt;/div&gt;" style="strokeWidth=2;html=1;shape=mxgraph.flowchart.start_1;whiteSpace=wrap;" vertex="1" parent="1">
          <mxGeometry x="65" y="1764" width="150" height="90" as="geometry" />
        </mxCell>
        <mxCell id="90HHAPKfToBtOzx2FQQZ-43" style="edgeStyle=orthogonalEdgeStyle;rounded=0;orthogonalLoop=1;jettySize=auto;html=1;exitX=1;exitY=0.5;exitDx=0;exitDy=0;entryX=0;entryY=0.5;entryDx=0;entryDy=0;entryPerimeter=0;" edge="1" source="90HHAPKfToBtOzx2FQQZ-44" target="90HHAPKfToBtOzx2FQQZ-50" parent="1">
          <mxGeometry relative="1" as="geometry">
            <mxPoint x="439.87795000000006" y="1809" as="targetPoint" />
          </mxGeometry>
        </mxCell>
        <mxCell id="90HHAPKfToBtOzx2FQQZ-44" value="System prompts the user to confirm the action" style="rounded=1;whiteSpace=wrap;html=1;absoluteArcSize=1;arcSize=14;strokeWidth=2;" vertex="1" parent="1">
          <mxGeometry x="260" y="1759" width="100" height="100" as="geometry" />
        </mxCell>
        <mxCell id="90HHAPKfToBtOzx2FQQZ-45" style="edgeStyle=orthogonalEdgeStyle;rounded=0;orthogonalLoop=1;jettySize=auto;html=1;exitX=1;exitY=0.5;exitDx=0;exitDy=0;entryX=0;entryY=0.5;entryDx=0;entryDy=0;" edge="1" target="90HHAPKfToBtOzx2FQQZ-47" parent="1">
          <mxGeometry relative="1" as="geometry">
            <mxPoint x="561.7920500000005" y="1809" as="sourcePoint" />
          </mxGeometry>
        </mxCell>
        <mxCell id="90HHAPKfToBtOzx2FQQZ-58" style="edgeStyle=orthogonalEdgeStyle;rounded=0;orthogonalLoop=1;jettySize=auto;html=1;exitX=1;exitY=0.5;exitDx=0;exitDy=0;exitPerimeter=0;entryX=0;entryY=0.5;entryDx=0;entryDy=0;" edge="1" parent="1" source="90HHAPKfToBtOzx2FQQZ-50" target="90HHAPKfToBtOzx2FQQZ-57">
          <mxGeometry relative="1" as="geometry" />
        </mxCell>
        <mxCell id="90HHAPKfToBtOzx2FQQZ-59" style="edgeStyle=orthogonalEdgeStyle;rounded=0;orthogonalLoop=1;jettySize=auto;html=1;exitX=0.5;exitY=1;exitDx=0;exitDy=0;exitPerimeter=0;entryX=0.5;entryY=0;entryDx=0;entryDy=0;" edge="1" parent="1" source="90HHAPKfToBtOzx2FQQZ-50" target="90HHAPKfToBtOzx2FQQZ-56">
          <mxGeometry relative="1" as="geometry" />
        </mxCell>
        <mxCell id="90HHAPKfToBtOzx2FQQZ-50" value="Delete or acrhive" style="strokeWidth=2;html=1;shape=mxgraph.flowchart.decision;whiteSpace=wrap;" vertex="1" parent="1">
          <mxGeometry x="467.5" y="1746.5" width="125" height="125" as="geometry" />
        </mxCell>
        <mxCell id="90HHAPKfToBtOzx2FQQZ-51" style="edgeStyle=orthogonalEdgeStyle;rounded=0;orthogonalLoop=1;jettySize=auto;html=1;exitX=1;exitY=0.5;exitDx=0;exitDy=0;entryX=0;entryY=0.5;entryDx=0;entryDy=0;" edge="1" target="90HHAPKfToBtOzx2FQQZ-53" parent="1">
          <mxGeometry relative="1" as="geometry">
            <mxPoint x="1060" y="1816.5" as="sourcePoint" />
          </mxGeometry>
        </mxCell>
        <mxCell id="90HHAPKfToBtOzx2FQQZ-61" style="edgeStyle=orthogonalEdgeStyle;rounded=0;orthogonalLoop=1;jettySize=auto;html=1;exitX=1;exitY=0.5;exitDx=0;exitDy=0;" edge="1" parent="1" source="90HHAPKfToBtOzx2FQQZ-56" target="90HHAPKfToBtOzx2FQQZ-60">
          <mxGeometry relative="1" as="geometry" />
        </mxCell>
        <mxCell id="90HHAPKfToBtOzx2FQQZ-56" value="System deletes the product" style="rounded=1;whiteSpace=wrap;html=1;absoluteArcSize=1;arcSize=14;strokeWidth=2;" vertex="1" parent="1">
          <mxGeometry x="480" y="1910" width="100" height="100" as="geometry" />
        </mxCell>
        <mxCell id="90HHAPKfToBtOzx2FQQZ-62" style="edgeStyle=orthogonalEdgeStyle;rounded=0;orthogonalLoop=1;jettySize=auto;html=1;exitX=0.5;exitY=1;exitDx=0;exitDy=0;entryX=0.5;entryY=0;entryDx=0;entryDy=0;" edge="1" parent="1" source="90HHAPKfToBtOzx2FQQZ-57" target="90HHAPKfToBtOzx2FQQZ-60">
          <mxGeometry relative="1" as="geometry" />
        </mxCell>
        <mxCell id="90HHAPKfToBtOzx2FQQZ-57" value="System archive the product" style="rounded=1;whiteSpace=wrap;html=1;absoluteArcSize=1;arcSize=14;strokeWidth=2;" vertex="1" parent="1">
          <mxGeometry x="693" y="1759" width="100" height="100" as="geometry" />
        </mxCell>
        <mxCell id="90HHAPKfToBtOzx2FQQZ-60" value="System confirms the product has been updated&lt;div&gt;or deleted&lt;/div&gt;" style="rounded=1;whiteSpace=wrap;html=1;absoluteArcSize=1;arcSize=14;strokeWidth=2;" vertex="1" parent="1">
          <mxGeometry x="693" y="1970" width="100" height="100" as="geometry" />
        </mxCell>
      </root>
    </mxGraphModel>
  </diagram>
  <diagram id="fErVwJJDAx_JUwvB0Bmo" name="Sales Management">
    <mxGraphModel dx="2327" dy="746" grid="1" gridSize="10" guides="1" tooltips="1" connect="1" arrows="1" fold="1" page="1" pageScale="1" pageWidth="827" pageHeight="1169" math="0" shadow="0">
      <root>
        <mxCell id="0" />
        <mxCell id="1" parent="0" />
        <mxCell id="veGnckZtErtQ1iC1VaG7-1" value="1. User Authentication&#xa;   - Sign up&#xa;   - Log in&#xa;   - Log out&#xa;   - Password reset&#xa;&#xa;&#xa;2. Dashboard Access&#xa;   - View dashboard&#xa;   - Navigate to different sections (e.g., Products, Sales, Reports)&#xa;&#xa;&#xa;3. Product Management&#xa;   - Add product&#xa;   - Edit product details&#xa;   - Manage product variants&#xa;   - Delete or archive product&#xa;&#xa;&#xa;4. Inventory Management&#xa;   - Track inventory levels&#xa;   - Update inventory&#xa;   - Set reorder alerts&#xa;&#xa;&#xa;5. Sales Management&#xa;   - Create a new sale&#xa;   - Add items to a sale&#xa;   - Apply discounts or offers&#xa;   - Complete sale transaction&#xa;   - Void or refund a sale&#xa;&#xa;&#xa;6. Customer Management&#xa;   - Add new customer&#xa;   - Edit customer details&#xa;   - View customer purchase history&#xa;&#xa;&#xa;7. Reporting&#xa;   - Generate sales reports&#xa;   - View product performance&#xa;   - Export reports&#xa;&#xa;&#xa;8. Settings and Configuration&#xa;   - Manage user roles and permissions&#xa;   - Customize app settings&#xa;   - Update business information&#xa;&#xa;&#xa;9. Payment Processing&#xa;   - Select payment method&#xa;   - Process payment&#xa;   - Handle payment errors or declined transactions&#xa;&#xa;&#xa;10. Notifications and Alerts&#xa;    - View and manage notifications&#xa;    - Set up alerts for low inventory or sales targets" style="text;whiteSpace=wrap;" vertex="1" parent="1">
          <mxGeometry x="-603" y="190" width="380" height="890" as="geometry" />
        </mxCell>
        <mxCell id="9vT2X-pDmY957znZ57l0-11" style="edgeStyle=orthogonalEdgeStyle;rounded=0;orthogonalLoop=1;jettySize=auto;html=1;exitX=1;exitY=0.5;exitDx=0;exitDy=0;entryX=0;entryY=0.5;entryDx=0;entryDy=0;" edge="1" parent="1" source="9vT2X-pDmY957znZ57l0-1" target="9vT2X-pDmY957znZ57l0-2">
          <mxGeometry relative="1" as="geometry" />
        </mxCell>
        <mxCell id="9vT2X-pDmY957znZ57l0-1" value="User accesses the sales management&amp;nbsp;&lt;div&gt;section&lt;/div&gt;" style="ellipse;whiteSpace=wrap;html=1;" vertex="1" parent="1">
          <mxGeometry x="-40" y="260" width="120" height="80" as="geometry" />
        </mxCell>
        <mxCell id="9vT2X-pDmY957znZ57l0-12" style="edgeStyle=orthogonalEdgeStyle;rounded=0;orthogonalLoop=1;jettySize=auto;html=1;exitX=1;exitY=0.5;exitDx=0;exitDy=0;entryX=0;entryY=0.5;entryDx=0;entryDy=0;" edge="1" parent="1" source="9vT2X-pDmY957znZ57l0-2" target="9vT2X-pDmY957znZ57l0-3">
          <mxGeometry relative="1" as="geometry" />
        </mxCell>
        <mxCell id="9vT2X-pDmY957znZ57l0-2" value="User selects a product category" style="rounded=1;whiteSpace=wrap;html=1;absoluteArcSize=1;arcSize=14;strokeWidth=2;" vertex="1" parent="1">
          <mxGeometry x="150" y="250" width="100" height="100" as="geometry" />
        </mxCell>
        <mxCell id="9vT2X-pDmY957znZ57l0-13" style="edgeStyle=orthogonalEdgeStyle;rounded=0;orthogonalLoop=1;jettySize=auto;html=1;exitX=1;exitY=0.5;exitDx=0;exitDy=0;entryX=0;entryY=0.5;entryDx=0;entryDy=0;" edge="1" parent="1" source="9vT2X-pDmY957znZ57l0-3" target="9vT2X-pDmY957znZ57l0-4">
          <mxGeometry relative="1" as="geometry" />
        </mxCell>
        <mxCell id="9vT2X-pDmY957znZ57l0-3" value="User selects a product from that category" style="rounded=1;whiteSpace=wrap;html=1;absoluteArcSize=1;arcSize=14;strokeWidth=2;" vertex="1" parent="1">
          <mxGeometry x="300" y="250" width="100" height="100" as="geometry" />
        </mxCell>
        <mxCell id="9vT2X-pDmY957znZ57l0-14" style="edgeStyle=orthogonalEdgeStyle;rounded=0;orthogonalLoop=1;jettySize=auto;html=1;exitX=0.5;exitY=1;exitDx=0;exitDy=0;entryX=0.5;entryY=0;entryDx=0;entryDy=0;" edge="1" parent="1" source="9vT2X-pDmY957znZ57l0-4" target="9vT2X-pDmY957znZ57l0-5">
          <mxGeometry relative="1" as="geometry" />
        </mxCell>
        <mxCell id="9vT2X-pDmY957znZ57l0-4" value="User selects a product variant" style="rounded=1;whiteSpace=wrap;html=1;absoluteArcSize=1;arcSize=14;strokeWidth=2;" vertex="1" parent="1">
          <mxGeometry x="440" y="250" width="100" height="100" as="geometry" />
        </mxCell>
        <mxCell id="9vT2X-pDmY957znZ57l0-5" value="User enters the amount of items of the variant" style="shape=parallelogram;html=1;strokeWidth=2;perimeter=parallelogramPerimeter;whiteSpace=wrap;rounded=1;arcSize=12;size=0.23;" vertex="1" parent="1">
          <mxGeometry x="440" y="380" width="100" height="60" as="geometry" />
        </mxCell>
        <mxCell id="9vT2X-pDmY957znZ57l0-16" style="edgeStyle=orthogonalEdgeStyle;rounded=0;orthogonalLoop=1;jettySize=auto;html=1;exitX=0.5;exitY=1;exitDx=0;exitDy=0;exitPerimeter=0;entryX=0.5;entryY=0;entryDx=0;entryDy=0;" edge="1" parent="1" source="9vT2X-pDmY957znZ57l0-6" target="9vT2X-pDmY957znZ57l0-7">
          <mxGeometry relative="1" as="geometry" />
        </mxCell>
        <mxCell id="9vT2X-pDmY957znZ57l0-6" value="Add another product to the sale?" style="strokeWidth=2;html=1;shape=mxgraph.flowchart.decision;whiteSpace=wrap;" vertex="1" parent="1">
          <mxGeometry x="440" y="470" width="100" height="100" as="geometry" />
        </mxCell>
        <mxCell id="9vT2X-pDmY957znZ57l0-17" style="edgeStyle=orthogonalEdgeStyle;rounded=0;orthogonalLoop=1;jettySize=auto;html=1;exitX=0.5;exitY=1;exitDx=0;exitDy=0;entryX=0.5;entryY=0;entryDx=0;entryDy=0;" edge="1" parent="1" source="9vT2X-pDmY957znZ57l0-7" target="9vT2X-pDmY957znZ57l0-9">
          <mxGeometry relative="1" as="geometry" />
        </mxCell>
        <mxCell id="9vT2X-pDmY957znZ57l0-7" value="User chooses payment method" style="rounded=1;whiteSpace=wrap;html=1;absoluteArcSize=1;arcSize=14;strokeWidth=2;" vertex="1" parent="1">
          <mxGeometry x="440" y="600" width="100" height="100" as="geometry" />
        </mxCell>
        <mxCell id="9vT2X-pDmY957znZ57l0-18" style="edgeStyle=orthogonalEdgeStyle;rounded=0;orthogonalLoop=1;jettySize=auto;html=1;exitX=0.5;exitY=1;exitDx=0;exitDy=0;entryX=0.5;entryY=0;entryDx=0;entryDy=0;" edge="1" parent="1" source="9vT2X-pDmY957znZ57l0-9" target="9vT2X-pDmY957znZ57l0-10">
          <mxGeometry relative="1" as="geometry" />
        </mxCell>
        <mxCell id="9vT2X-pDmY957znZ57l0-9" value="User completes the sale" style="rounded=1;whiteSpace=wrap;html=1;absoluteArcSize=1;arcSize=14;strokeWidth=2;" vertex="1" parent="1">
          <mxGeometry x="440" y="730" width="100" height="100" as="geometry" />
        </mxCell>
        <mxCell id="9vT2X-pDmY957znZ57l0-10" value="System provides sale details" style="shape=parallelogram;html=1;strokeWidth=2;perimeter=parallelogramPerimeter;whiteSpace=wrap;rounded=1;arcSize=12;size=0.23;" vertex="1" parent="1">
          <mxGeometry x="415" y="870" width="150" height="90" as="geometry" />
        </mxCell>
        <mxCell id="9vT2X-pDmY957znZ57l0-15" style="edgeStyle=orthogonalEdgeStyle;rounded=0;orthogonalLoop=1;jettySize=auto;html=1;exitX=0.5;exitY=1;exitDx=0;exitDy=0;entryX=0.5;entryY=0;entryDx=0;entryDy=0;entryPerimeter=0;" edge="1" parent="1" source="9vT2X-pDmY957znZ57l0-5" target="9vT2X-pDmY957znZ57l0-6">
          <mxGeometry relative="1" as="geometry" />
        </mxCell>
        <mxCell id="9vT2X-pDmY957znZ57l0-19" value="User completes&lt;div&gt;sales task&lt;/div&gt;" style="strokeWidth=2;html=1;shape=mxgraph.flowchart.start_1;whiteSpace=wrap;" vertex="1" parent="1">
          <mxGeometry x="440" y="1000" width="100" height="60" as="geometry" />
        </mxCell>
        <mxCell id="yW1qPdrsY9zgSs1vMqbq-1" style="edgeStyle=orthogonalEdgeStyle;rounded=0;orthogonalLoop=1;jettySize=auto;html=1;exitX=0.5;exitY=1;exitDx=0;exitDy=0;entryX=0.5;entryY=0;entryDx=0;entryDy=0;entryPerimeter=0;" edge="1" parent="1" source="9vT2X-pDmY957znZ57l0-10" target="9vT2X-pDmY957znZ57l0-19">
          <mxGeometry relative="1" as="geometry" />
        </mxCell>
      </root>
    </mxGraphModel>
  </diagram>
  <diagram id="ad-hiYKI74t85FynTnoL" name="Inventory Management">
    <mxGraphModel dx="2327" dy="746" grid="1" gridSize="10" guides="1" tooltips="1" connect="1" arrows="1" fold="1" page="1" pageScale="1" pageWidth="827" pageHeight="1169" math="0" shadow="0">
      <root>
        <mxCell id="0" />
        <mxCell id="1" parent="0" />
        <mxCell id="U7Wai3kOTIbkrn5C5t9N-1" value="User navigates to the inventory section from the dashboard" style="ellipse;whiteSpace=wrap;html=1;" parent="1" vertex="1">
          <mxGeometry x="120" y="80" width="120" height="80" as="geometry" />
        </mxCell>
        <mxCell id="XduHA4tKhO0_VyA1QoJe-1" value="1. **View Inventory**&#xa;   - User navigates to the Inventory section from the dashboard.&#xa;   - System displays a list of all products with their current inventory levels.&#xa;&#xa;&#xa;2. **Update Inventory**&#xa;   - User selects a product to update inventory levels.&#xa;   - System displays the product details with an option to adjust the inventory.&#xa;   - User enters the new inventory quantity.&#xa;   - System updates the inventory level and confirms the change.&#xa;&#xa;&#xa;3. **Set Reorder Alerts**&#xa;   - User selects a product to set reorder alerts.&#xa;   - System displays options to configure the minimum inventory threshold.&#xa;   - User enters the threshold value.&#xa;   - System saves the alert setting and notifies the user when inventory falls below the threshold.&#xa;&#xa;&#xa;4. **Track Inventory History**&#xa;   - User selects a product to view its inventory history.&#xa;   - System displays a log of inventory changes over time, including dates, quantities, and reasons for adjustments.&#xa;&#xa;&#xa;5. **Receive Inventory**&#xa;   - User initiates the process to receive new stock.&#xa;   - System prompts the user to select the product and enter the quantity received.&#xa;   - User confirms the entry.&#xa;   - System updates the inventory levels and logs the transaction.&#xa;&#xa;&#xa;6. **Transfer Inventory**&#xa;   - User selects the option to transfer inventory between locations.&#xa;   - System prompts the user to select the source and destination locations, along with the product and quantity.&#xa;   - User confirms the transfer.&#xa;   - System updates inventory levels at both locations and logs the transfer." style="text;whiteSpace=wrap;" vertex="1" parent="1">
          <mxGeometry x="-460" y="50" width="560" height="570" as="geometry" />
        </mxCell>
        <mxCell id="XduHA4tKhO0_VyA1QoJe-2" value="System displays a list of all products with their current inventory levels" style="shape=parallelogram;html=1;strokeWidth=2;perimeter=parallelogramPerimeter;whiteSpace=wrap;rounded=1;arcSize=12;size=0.23;" vertex="1" parent="1">
          <mxGeometry x="270" y="60" width="200" height="120" as="geometry" />
        </mxCell>
        <mxCell id="XduHA4tKhO0_VyA1QoJe-3" value="User selects a product to update inventory" style="rounded=1;whiteSpace=wrap;html=1;absoluteArcSize=1;arcSize=14;strokeWidth=2;" vertex="1" parent="1">
          <mxGeometry x="520" y="70" width="100" height="100" as="geometry" />
        </mxCell>
        <mxCell id="XduHA4tKhO0_VyA1QoJe-4" value="User enters new inventory quantity" style="shape=parallelogram;html=1;strokeWidth=2;perimeter=parallelogramPerimeter;whiteSpace=wrap;rounded=1;arcSize=12;size=0.23;" vertex="1" parent="1">
          <mxGeometry x="677" y="75" width="150" height="90" as="geometry" />
        </mxCell>
        <mxCell id="XduHA4tKhO0_VyA1QoJe-5" value="System updates the new inventory level and confirms the change" style="rounded=1;whiteSpace=wrap;html=1;absoluteArcSize=1;arcSize=14;strokeWidth=2;" vertex="1" parent="1">
          <mxGeometry x="890" y="70" width="100" height="100" as="geometry" />
        </mxCell>
      </root>
    </mxGraphModel>
  </diagram>
</mxfile>
